# Blender v2.73 (sub 0) OBJ File: 'editor.blend'
# www.blender.org
v 1.500000 0.000000 -1.499999
v 0.500000 0.000000 -1.499999
v 2.245492 0.000000 -1.243977
v -0.500000 0.000000 -1.499999
v -1.253800 0.000000 -1.243976
v -0.499999 -0.000000 1.500001
v 0.500001 -0.000000 1.500001
v -1.253798 -0.000000 1.258940
v 1.298665 0.000288 -1.243977
v 1.203250 0.000288 -1.243977
v 1.128214 -0.000000 1.258938
v -1.500000 0.000000 -1.500000
v -1.499999 0.000000 -0.499999
v 1.500001 -0.000000 1.500001
v -1.253799 1.838833 -0.289822
v -1.253800 1.382620 -1.243976
v 1.203250 1.656592 -1.005439
v 1.203250 1.851183 -0.766900
v 1.203250 1.851183 -1.005439
v 1.203249 1.656592 0.425793
v 1.203249 1.851183 0.425793
v 1.203249 1.851183 0.187254
v 1.298665 1.656592 0.425793
v 1.298665 1.851183 0.187255
v 1.298665 1.851183 0.425793
v 1.298665 1.656592 -1.005438
v 1.298665 1.851183 -1.005438
v 1.298665 1.851183 -0.766899
v 1.298665 2.054467 -0.766899
v 1.298665 2.054467 -0.528361
v 1.298665 2.054467 -0.051284
v 1.298665 2.054467 0.187255
v 1.203250 1.656592 -1.243977
v 1.203254 1.382536 -1.243977
v 1.203249 1.656592 0.664331
v 1.203251 1.382620 0.664332
v 1.203250 1.898105 -0.289823
v 1.203250 2.054467 -0.051284
v 1.203250 2.054467 -0.528362
v 1.298665 1.656592 -1.243977
v 1.298665 1.656592 0.664332
v -1.253798 1.069481 0.664333
v -1.253798 1.382620 0.664333
v 2.245492 -0.000000 0.664332
v 1.298665 0.000432 0.664332
v 1.203249 0.000865 0.664328
v 1.128214 1.069479 0.664333
v 1.203249 1.069479 0.664327
v -1.331622 1.069481 0.664333
v -1.331622 0.788293 1.341989
v 1.128214 1.012696 0.664333
v 1.203251 0.788292 1.341982
v 2.500001 0.000000 -1.499999
v 2.500000 0.000000 -0.499999
v -1.499999 -0.000000 1.500001
v 1.203250 2.202390 -0.051284
v 1.203250 2.202390 -0.528362
v 1.128211 0.766226 1.258892
v 1.128214 -0.000000 0.664333
v -1.331623 1.012696 0.664336
v -1.331622 0.735188 1.334214
v 1.203249 1.012696 0.664328
v 1.203251 0.735188 1.334206
v 1.298665 0.134432 0.664332
v 2.245492 0.134432 0.664332
v 2.245492 0.134432 -1.243977
v 1.298665 0.134432 -1.243977
v -1.331622 1.898105 -0.289809
v -1.331622 1.399094 -1.335645
v -1.331623 1.838832 -0.289817
v -1.331622 1.350451 -1.312963
v -1.331621 1.399092 0.756007
v -1.331621 1.350450 0.733325
v 1.298668 0.134360 -1.243950
v 1.298668 0.134432 0.664358
v 1.203250 1.399094 0.756000
v 1.203250 1.350451 0.733317
v 1.203250 1.442817 0.664332
v 1.203250 1.382620 0.664332
v 1.203249 1.350449 -1.312968
v 1.203249 1.399092 -1.335650
v 1.203259 1.442711 -1.243977
v 2.500001 -0.000000 0.500001
v -1.253798 1.012695 0.664333
v -1.253798 -0.000000 0.664332
v -1.253798 0.766226 1.258893
v 1.203250 2.054467 -0.766900
v 1.203249 2.054467 0.187254
v 1.298665 2.202390 -0.051284
v 1.298665 2.202390 -0.528361
v -1.499999 -0.000000 0.500001
v 2.500001 -0.000000 1.500001
vt 0.397477 0.980367
vt 0.271182 0.980759
vt 0.491528 0.947740
vt 0.144887 0.981151
vt 0.049586 0.949112
vt 0.143711 0.602267
vt 0.270006 0.601875
vt 0.048605 0.633008
vt 0.371949 0.948112
vt 0.359898 0.948149
vt 0.349440 0.632074
vt 0.018593 0.981543
vt 0.018201 0.855249
vt 0.396300 0.601483
vt 0.413958 0.244774
vt 0.295466 0.188119
vt 0.295466 0.016417
vt 0.916694 0.706348
vt 0.892408 0.736123
vt 0.892406 0.706349
vt 0.916702 0.884990
vt 0.892414 0.884991
vt 0.892413 0.855217
vt 0.767900 0.884689
vt 0.792831 0.855219
vt 0.792832 0.884992
vt 0.769078 0.706286
vt 0.792827 0.706354
vt 0.792828 0.736127
vt 0.818200 0.736126
vt 0.818201 0.765899
vt 0.818203 0.825445
vt 0.818204 0.855218
vt 0.916693 0.676575
vt 0.950889 0.676573
vt 0.916703 0.914764
vt 0.950899 0.914763
vt 0.886554 0.795670
vt 0.867038 0.825444
vt 0.867036 0.765897
vt 0.734278 0.663701
vt 0.768537 0.663795
vt 0.768538 0.676582
vt 0.971965 0.224777
vt 0.971966 0.190088
vt 0.985168 0.224954
vt 0.532451 0.149232
vt 0.532450 0.188119
vt 0.490779 0.706731
vt 0.371200 0.707102
vt 0.359150 0.707141
vt 0.961711 0.151618
vt 0.971968 0.151873
vt 0.431019 0.779462
vt 0.426159 0.864410
vt 0.419099 0.779462
vt 0.961529 0.143213
vt 0.112472 0.864425
vt 0.112416 0.779477
vt 0.124328 0.779476
vt 0.523771 0.979975
vt 0.523379 0.853680
vt 0.017416 0.602659
vt 0.848848 0.825444
vt 0.848843 0.765898
vt 0.900329 0.110842
vt 0.899668 0.017305
vt 0.961249 0.016740
vt 0.442365 0.779461
vt 0.437563 0.864409
vt 0.100879 0.779477
vt 0.101044 0.864425
vt 0.939130 0.526739
vt 0.939187 0.543401
vt 0.821400 0.527140
vt 0.821456 0.543855
vt 0.804666 0.291354
vt 0.820591 0.289858
vt 0.805474 0.528636
vt 0.938265 0.272741
vt 0.938322 0.289456
vt 0.820535 0.273142
vt 0.328083 0.403565
vt 0.328102 0.267066
vt 0.340010 0.402678
vt 0.338350 0.267887
vt 0.328063 0.540062
vt 0.339491 0.539980
vt 0.579560 0.677177
vt 0.768545 0.914765
vt 0.578380 0.914646
vt 0.562316 0.663910
vt 0.561880 0.676589
vt 0.985174 0.035661
vt 0.971974 0.017589
vt 0.985180 0.018243
vt 0.029413 0.540063
vt 0.029171 0.551912
vt 0.007824 0.539610
vt 0.007580 0.551311
vt 0.028609 0.251932
vt 0.027449 0.267024
vt 0.008351 0.266658
vt 0.009191 0.251913
vt 0.522987 0.727386
vt 0.327823 0.552059
vt 0.029488 0.403522
vt 0.328272 0.251954
vt 0.316160 0.238025
vt 0.029751 0.238876
vt 0.325596 0.564655
vt 0.034736 0.564425
vt 0.353329 0.529069
vt 0.353214 0.402745
vt 0.734187 0.358288
vt 0.562485 0.358304
vt 0.532451 0.141727
vt 0.531488 0.016346
vt 0.600420 0.111194
vt 0.599889 0.016464
vt 0.448956 0.853974
vt 0.452732 0.781302
vt 0.425957 0.873749
vt 0.414952 0.884688
vt 0.113037 0.874844
vt 0.122247 0.883099
vt 0.091874 0.856445
vt 0.090501 0.779478
vt 0.431286 0.764702
vt 0.419558 0.760162
vt 0.848829 0.608457
vt 0.848832 0.638229
vt 0.836651 0.608458
vt 0.836654 0.638231
vt 0.848860 0.953183
vt 0.848863 0.986404
vt 0.836547 0.953185
vt 0.836411 0.986405
vt 0.836682 0.928830
vt 0.848858 0.928827
vt 0.848834 0.662517
vt 0.836657 0.662518
vt 0.848855 0.899053
vt 0.836676 0.899055
vt 0.848837 0.692289
vt 0.836660 0.692291
vt 0.848839 0.717662
vt 0.836662 0.717663
vt 0.836671 0.873681
vt 0.848853 0.873680
vt 0.848841 0.747435
vt 0.836663 0.747436
vt 0.848850 0.843907
vt 0.836668 0.843908
vt 0.836666 0.825445
vt 0.836664 0.765899
vt 0.659580 0.151331
vt 0.658103 0.189336
vt 0.349673 0.707169
vt 0.017808 0.728954
vt 0.048838 0.708103
vt 0.522595 0.601091
vt 0.351741 0.272932
vt 0.867040 0.855218
vt 0.867035 0.736124
vn 0.000000 1.000000 0.000000
vn 0.000300 1.000000 -0.002100
vn -0.000100 1.000000 -0.000800
vn 0.000000 1.000000 -0.001100
vn -1.000000 -0.000000 0.000000
vn 1.000000 0.000000 0.000000
vn 0.000000 0.000000 -1.000000
vn -0.000000 0.000000 1.000000
vn 0.000500 1.000000 0.000400
vn 0.004500 1.000000 -0.000600
vn 0.000100 -0.000000 1.000000
vn 0.000000 0.923600 0.383300
vn 0.000300 0.000000 -1.000000
vn 0.000100 -0.000000 -1.000000
vn 0.000000 0.000200 -1.000000
vn -0.000300 0.000000 1.000000
vn -0.000000 -0.000200 1.000000
vn -0.000200 0.000000 1.000000
vn 1.000000 -0.000000 -0.000100
vn 1.000000 -0.000100 -0.000000
vn 0.000000 -0.422600 0.906300
vn 0.000000 0.902500 0.430600
vn -0.000000 -0.422600 -0.906300
vn -0.000000 0.902500 -0.430600
vn 0.000000 -0.906300 0.422600
vn -0.000000 -0.906700 0.421700
vn -0.000000 -0.906300 -0.422600
vn -0.008800 -0.902400 -0.430800
vn -0.000000 -0.902200 -0.431400
vn 0.000000 0.000100 1.000000
vn -0.002000 -0.923900 -0.382700
vn -0.000000 -0.923800 -0.382900
vn -0.000000 -0.924600 -0.381000
vn 0.000000 -0.144900 0.989500
vn 0.000000 -0.144900 0.989400
vn 0.002000 -0.923900 -0.382700
vn -0.000000 -0.000100 -1.000000
vn -0.011500 0.999900 0.000000
vn -0.000900 1.000000 0.001300
vn 0.000000 -0.902200 0.431400
vn -0.008800 -0.902400 0.430800
s off
f 1/1/1 2/2/1 3/3/1
f 2/2/1 4/4/1 5/5/1
f 6/6/1 7/7/1 8/8/1
f 9/9/2 3/3/2 2/2/2
f 5/5/3 10/10/3 2/2/3
f 10/10/4 9/9/4 2/2/4
f 11/11/1 8/8/1 7/7/1
f 5/5/1 4/4/1 12/12/1
f 13/13/1 5/5/1 12/12/1
f 14/14/1 11/11/1 7/7/1
f 15/15/5 16/16/5 5/17/5
f 17/18/5 18/19/5 19/20/5
f 20/21/5 21/22/5 22/23/5
f 23/24/6 24/25/6 25/26/6
f 26/27/6 27/28/6 28/29/6
f 28/29/6 29/30/6 30/31/6
f 24/25/6 31/32/6 32/33/6
f 33/34/5 34/35/5 17/18/5
f 35/36/5 20/21/5 36/37/5
f 37/38/5 36/37/5 20/21/5
f 37/38/5 17/18/5 34/35/5
f 37/38/5 18/19/5 17/18/5
f 37/38/5 20/21/5 22/23/5
f 37/38/5 38/39/5 39/40/5
f 34/41/7 33/42/7 40/43/7
f 35/44/8 36/45/8 41/46/8
f 42/47/5 15/15/5 5/17/5
f 42/47/5 43/48/5 15/15/5
f 14/14/9 44/49/9 45/50/9
f 14/14/10 45/50/10 46/51/10
f 36/45/11 47/52/11 48/53/11
f 36/45/8 48/53/8 41/46/8
f 49/54/12 50/55/12 42/56/12
f 47/52/11 51/57/11 48/53/11
f 52/58/12 48/59/12 47/60/12
f 53/61/1 1/1/1 3/3/1
f 53/61/1 3/3/1 54/62/1
f 55/63/1 6/6/1 8/8/1
f 39/40/5 38/39/5 56/64/5
f 39/40/5 56/64/5 57/65/5
f 58/66/6 11/67/6 59/68/6
f 58/66/6 59/68/6 51/57/6
f 50/55/5 49/54/5 60/69/5
f 50/55/5 60/69/5 61/70/5
f 48/59/6 52/58/6 62/71/6
f 52/58/6 63/72/6 62/71/6
f 64/73/8 45/74/8 65/75/8
f 45/74/8 44/76/8 65/75/8
f 3/77/6 66/78/6 44/79/6
f 66/78/6 65/75/6 44/79/6
f 9/80/7 67/81/7 66/78/7
f 9/80/7 66/78/7 3/82/7
f 68/83/5 69/84/5 70/85/5
f 69/84/5 71/86/5 70/85/5
f 72/87/5 68/83/5 70/85/5
f 72/87/5 70/85/5 73/88/5
f 74/89/6 40/43/6 26/27/6
f 41/90/6 75/91/6 23/24/6
f 74/89/13 10/92/13 34/41/13
f 40/43/14 74/89/14 34/41/14
f 74/89/15 9/93/15 10/92/15
f 75/94/16 48/53/16 46/95/16
f 45/96/17 75/94/17 46/95/17
f 75/94/18 41/46/18 48/53/18
f 26/27/6 23/24/6 75/91/6
f 26/27/6 75/91/6 74/89/6
f 76/97/6 77/98/6 78/99/6
f 77/98/6 79/100/6 78/99/6
f 80/101/19 81/102/19 82/103/19
f 80/101/20 82/103/20 34/104/20
f 3/3/1 44/49/1 54/62/1
f 44/49/1 83/105/1 54/62/1
f 72/87/21 73/106/21 77/98/21
f 72/87/21 77/98/21 76/97/21
f 72/87/22 76/97/22 68/83/22
f 76/97/22 37/107/22 68/83/22
f 80/101/23 71/108/23 81/102/23
f 71/108/23 69/84/23 81/102/23
f 68/83/24 37/107/24 69/84/24
f 37/107/24 81/102/24 69/84/24
f 71/108/25 80/101/25 16/109/25
f 80/101/26 34/110/26 16/109/26
f 73/106/27 43/111/27 77/98/27
f 43/111/27 36/112/27 77/98/27
f 73/88/28 70/85/28 43/113/28
f 70/85/29 15/114/29 43/113/29
f 34/41/7 10/92/7 16/115/7
f 10/92/7 5/116/7 16/115/7
f 65/75/1 66/78/1 64/73/1
f 66/78/1 67/81/1 64/73/1
f 84/117/5 85/118/5 86/119/5
f 85/118/5 8/120/5 86/119/5
f 11/67/30 58/66/30 8/120/30
f 58/66/30 86/119/30 8/120/30
f 61/70/31 60/69/31 86/121/31
f 60/69/32 84/122/32 86/121/32
f 61/123/33 86/124/33 63/125/33
f 86/124/33 58/126/33 63/125/33
f 50/55/34 61/123/34 63/125/34
f 50/55/35 63/125/35 52/58/35
f 63/72/36 58/127/36 62/71/36
f 58/127/32 51/128/32 62/71/32
f 60/129/37 49/54/37 84/130/37
f 49/54/7 42/56/7 84/130/7
f 33/131/1 17/132/1 40/133/1
f 17/132/1 26/134/1 40/133/1
f 20/135/1 35/136/1 23/137/1
f 35/136/1 41/138/1 23/137/1
f 23/137/8 25/139/8 21/140/8
f 23/137/8 21/140/8 20/135/8
f 17/132/7 19/141/7 27/142/7
f 17/132/7 27/142/7 26/134/7
f 26/27/6 28/29/6 23/24/6
f 28/29/6 24/25/6 23/24/6
f 22/143/1 21/140/1 24/144/1
f 21/140/1 25/139/1 24/144/1
f 19/141/1 18/145/1 27/142/1
f 18/145/1 28/146/1 27/142/1
f 18/145/7 87/147/7 29/148/7
f 18/145/7 29/148/7 28/146/7
f 24/144/8 32/149/8 88/150/8
f 24/144/8 88/150/8 22/143/8
f 28/29/6 30/31/6 24/25/6
f 30/31/6 31/32/6 24/25/6
f 87/147/1 39/151/1 29/148/1
f 39/151/1 30/152/1 29/148/1
f 38/153/1 88/150/1 31/154/1
f 88/150/1 32/149/1 31/154/1
f 31/154/8 89/155/8 56/64/8
f 31/154/8 56/64/8 38/153/8
f 39/151/7 57/65/7 90/156/7
f 39/151/7 90/156/7 30/152/7
f 30/31/6 90/156/6 89/155/6
f 30/31/6 89/155/6 31/32/6
f 57/65/1 56/64/1 90/156/1
f 56/64/1 89/155/1 90/156/1
f 48/53/11 51/57/11 46/95/11
f 51/57/11 59/68/11 46/95/11
f 50/55/12 52/58/12 42/56/12
f 52/58/12 47/60/12 42/56/12
f 42/157/8 47/52/8 43/158/8
f 47/52/8 36/45/8 43/158/8
f 59/159/38 11/11/38 46/51/38
f 11/11/39 14/14/39 46/51/39
f 55/63/1 8/8/1 91/160/1
f 8/8/1 85/161/1 91/160/1
f 91/160/1 85/161/1 13/13/1
f 85/161/1 5/5/1 13/13/1
f 83/105/1 44/49/1 92/162/1
f 44/49/1 14/14/1 92/162/1
f 16/163/40 15/114/40 70/85/40
f 16/163/41 70/85/41 71/86/41
f 85/118/5 84/117/5 42/47/5
f 85/118/5 42/47/5 5/17/5
f 88/164/5 38/39/5 22/23/5
f 38/39/5 37/38/5 22/23/5
f 87/165/5 18/19/5 39/40/5
f 18/19/5 37/38/5 39/40/5
