# Blender v2.69 (sub 0) OBJ File: ''
# www.blender.org
v 1.543656 0.407548 -0.601178
v 1.543655 0.407548 0.599452
v 1.543656 0.779937 -0.000863
v 1.543656 -0.409428 0.599452
v 1.543656 -0.409428 -0.601178
v -0.014510 -0.000940 -0.000863
v 1.543655 0.407548 0.599452
v 1.543656 0.407548 -0.601178
vt 0.786210 0.866407
vt 0.589747 0.999880
vt 0.393285 0.866407
vt 0.000000 0.000000
vn -1.000000 0.000001 -0.000001
vn -1.000000 -0.000000 0.000000
vn 0.253590 -0.967312 0.000000
vn 0.359511 0.000001 -0.933141
vn 0.253590 0.967312 0.000000
vn 0.359511 -0.000000 0.933141
vn -1.000000 -0.000001 -0.000001
s off
f 1/1/1 2/2/1 3/3/1
f 5/4/2 4/4/2 8/4/2
f 8/4/3 7/4/3 6/4/3
f 6/4/4 7/4/4 4/4/4
f 5/4/5 6/4/5 4/4/5
f 6/4/6 5/4/6 8/4/6
f 4/4/7 7/4/7 8/4/7
